<?xml version="1.0" standalone="no"?>
<!DOCTYPE svg PUBLIC "-//W3C//DTD SVG 20010904//EN"
 "http://www.w3.org/TR/2001/REC-SVG-20010904/DTD/svg10.dtd">
<svg version="1.0" xmlns="http://www.w3.org/2000/svg"
 width="1000.000000pt" height="1000.000000pt" viewBox="0 0 1000.000000 1000.000000"
 preserveAspectRatio="xMidYMid meet">

<g transform="translate(0.000000,1000.000000) scale(0.100000,-0.100000)"
fill="#000000" stroke="none">
<path d="M4753 8329 c-1629 -85 -3099 -1044 -3827 -2499 -242 -484 -388 -982
-453 -1552 -16 -138 -18 -274 -18 -1383 l0 -1230 418 -3 417 -2 0 113 c0 266
32 483 100 688 209 629 766 1106 1425 1219 728 125 1457 -187 1858 -795 211
-321 306 -662 307 -1103 l0 -122 418 2 417 3 -1 225 c-2 323 -36 536 -135 835
-117 351 -326 699 -585 974 -438 464 -1015 752 -1653 826 -161 19 -451 19
-612 0 -407 -47 -815 -191 -1136 -400 -46 -30 -86 -55 -89 -55 -10 0 75 149
143 253 103 157 215 292 367 442 432 428 952 685 1576 782 144 22 595 25 735
5 341 -49 612 -132 898 -275 538 -269 964 -691 1235 -1225 174 -342 264 -669
292 -1057 5 -77 10 -409 10 -738 l0 -597 418 2 417 3 0 710 c0 628 -2 726 -18
850 -56 429 -162 790 -343 1161 -438 902 -1273 1599 -2249 1879 -861 247
-1784 170 -2582 -215 -251 -121 -456 -247 -653 -402 -53 -41 -101 -78 -108
-82 -6 -4 11 33 39 81 530 918 1433 1567 2473 1778 278 56 422 69 746 69 324
0 468 -13 747 -70 880 -177 1675 -677 2216 -1391 384 -507 630 -1106 711
-1729 30 -229 36 -467 36 -1552 l0 -1092 418 2 417 3 0 1230 c0 1109 -2 1245
-18 1383 -116 1008 -519 1893 -1187 2607 -818 875 -1915 1382 -3125 1445 -208
11 -239 11 -462 -1z"/>
</g>
</svg>
